<svg width="186" height="82" viewBox="0 0 186 82" fill="none" xmlns="http://www.w3.org/2000/svg">
<path d="M33.9091 16.5C33.5909 15.3939 33.1439 14.4167 32.5682 13.5682C31.9924 12.7045 31.2879 11.9773 30.4545 11.3864C29.6364 10.7803 28.697 10.3182 27.6364 10C26.5909 9.68182 25.4318 9.52273 24.1591 9.52273C21.7803 9.52273 19.6894 10.1136 17.8864 11.2955C16.0985 12.4773 14.7045 14.197 13.7045 16.4545C12.7045 18.697 12.2045 21.4394 12.2045 24.6818C12.2045 27.9242 12.697 30.6818 13.6818 32.9545C14.6667 35.2273 16.0606 36.9621 17.8636 38.1591C19.6667 39.3409 21.7955 39.9318 24.25 39.9318C26.4773 39.9318 28.3788 39.5379 29.9545 38.75C31.5455 37.947 32.7576 36.8182 33.5909 35.3636C34.4394 33.9091 34.8636 32.1894 34.8636 30.2045L36.8636 30.5H24.8636V23.0909H44.3409V28.9545C44.3409 33.0455 43.4773 36.5606 41.75 39.5C40.0227 42.4242 37.6439 44.6818 34.6136 46.2727C31.5833 47.8485 28.1136 48.6364 24.2045 48.6364C19.8409 48.6364 16.0076 47.6742 12.7045 45.75C9.40152 43.8106 6.82576 41.0606 4.97727 37.5C3.14394 33.9242 2.22727 29.6818 2.22727 24.7727C2.22727 21 2.77273 17.6364 3.86364 14.6818C4.9697 11.7121 6.51515 9.19697 8.5 7.13636C10.4848 5.07576 12.7955 3.50757 15.4318 2.43182C18.0682 1.35606 20.9242 0.81818 24 0.81818C26.6364 0.81818 29.0909 1.20454 31.3636 1.97727C33.6364 2.73485 35.6515 3.81061 37.4091 5.20454C39.1818 6.59848 40.6288 8.25757 41.75 10.1818C42.8712 12.0909 43.5909 14.197 43.9091 16.5H33.9091ZM67.4602 48.6818C63.8693 48.6818 60.7784 47.9545 58.1875 46.5C55.6117 45.0303 53.6269 42.9545 52.233 40.2727C50.839 37.5758 50.142 34.3864 50.142 30.7045C50.142 27.1136 50.839 23.9621 52.233 21.25C53.6269 18.5379 55.589 16.4242 58.1193 14.9091C60.6648 13.3939 63.6496 12.6364 67.0739 12.6364C69.3769 12.6364 71.5208 13.0076 73.5057 13.75C75.5057 14.4773 77.2481 15.5758 78.733 17.0455C80.233 18.5152 81.3996 20.3636 82.233 22.5909C83.0663 24.803 83.483 27.3939 83.483 30.3636V33.0227H54.0057V27.0227H74.3693C74.3693 25.6288 74.0663 24.3939 73.4602 23.3182C72.8542 22.2424 72.0133 21.4015 70.9375 20.7955C69.8769 20.1742 68.642 19.8636 67.233 19.8636C65.7633 19.8636 64.4602 20.2045 63.3239 20.8864C62.2027 21.553 61.3239 22.4545 60.6875 23.5909C60.0511 24.7121 59.7254 25.9621 59.7102 27.3409V33.0455C59.7102 34.7727 60.0284 36.2652 60.6648 37.5227C61.3163 38.7803 62.233 39.75 63.4148 40.4318C64.5966 41.1136 65.9981 41.4545 67.6193 41.4545C68.6951 41.4545 69.6799 41.303 70.5739 41C71.4678 40.697 72.233 40.2424 72.8693 39.6364C73.5057 39.0303 73.9905 38.2879 74.3239 37.4091L83.2784 38C82.8239 40.1515 81.892 42.0303 80.483 43.6364C79.089 45.2273 77.286 46.4697 75.0739 47.3636C72.8769 48.2424 70.339 48.6818 67.4602 48.6818ZM89.8011 48V13.0909H99.1875V19.1818H99.5511C100.188 17.0152 101.256 15.3788 102.756 14.2727C104.256 13.1515 105.983 12.5909 107.938 12.5909C108.422 12.5909 108.945 12.6212 109.506 12.6818C110.066 12.7424 110.559 12.8258 110.983 12.9318V21.5227C110.528 21.3864 109.9 21.2652 109.097 21.1591C108.294 21.053 107.559 21 106.892 21C105.468 21 104.195 21.3106 103.074 21.9318C101.968 22.5379 101.089 23.3864 100.438 24.4773C99.8011 25.5682 99.483 26.8258 99.483 28.25V48H89.8011ZM125.67 27.8182V48H115.989V13.0909H125.216V19.25H125.625C126.398 17.2197 127.693 15.6136 129.511 14.4318C131.33 13.2348 133.534 12.6364 136.125 12.6364C138.549 12.6364 140.663 13.1667 142.466 14.2273C144.269 15.2879 145.67 16.803 146.67 18.7727C147.67 20.7273 148.17 23.0606 148.17 25.7727V48H138.489V27.5C138.504 25.3636 137.958 23.697 136.852 22.5C135.746 21.2879 134.223 20.6818 132.284 20.6818C130.981 20.6818 129.83 20.9621 128.83 21.5227C127.845 22.0833 127.072 22.9015 126.511 23.9773C125.966 25.0379 125.686 26.3182 125.67 27.8182ZM165.756 48.6591C163.528 48.6591 161.544 48.2727 159.801 47.5C158.059 46.7121 156.68 45.553 155.665 44.0227C154.665 42.4773 154.165 40.553 154.165 38.25C154.165 36.3106 154.521 34.6818 155.233 33.3636C155.945 32.0455 156.915 30.9848 158.142 30.1818C159.369 29.3788 160.763 28.7727 162.324 28.3636C163.9 27.9545 165.551 27.6667 167.278 27.5C169.309 27.2879 170.945 27.0909 172.188 26.9091C173.43 26.7121 174.331 26.4242 174.892 26.0455C175.453 25.6667 175.733 25.1061 175.733 24.3636V24.2273C175.733 22.7879 175.278 21.6742 174.369 20.8864C173.475 20.0985 172.203 19.7045 170.551 19.7045C168.809 19.7045 167.422 20.0909 166.392 20.8636C165.362 21.6212 164.68 22.5758 164.347 23.7273L155.392 23C155.847 20.8788 156.741 19.0455 158.074 17.5C159.407 15.9394 161.127 14.7424 163.233 13.9091C165.354 13.0606 167.809 12.6364 170.597 12.6364C172.536 12.6364 174.392 12.8636 176.165 13.3182C177.953 13.7727 179.536 14.4773 180.915 15.4318C182.309 16.3864 183.407 17.6136 184.21 19.1136C185.013 20.5985 185.415 22.3788 185.415 24.4545V48H176.233V43.1591H175.96C175.4 44.25 174.65 45.2121 173.71 46.0455C172.771 46.8636 171.642 47.5076 170.324 47.9773C169.006 48.4318 167.483 48.6591 165.756 48.6591ZM168.528 41.9773C169.953 41.9773 171.21 41.697 172.301 41.1364C173.392 40.5606 174.248 39.7879 174.869 38.8182C175.491 37.8485 175.801 36.75 175.801 35.5227V31.8182C175.498 32.0152 175.081 32.197 174.551 32.3636C174.036 32.5152 173.453 32.6591 172.801 32.7955C172.15 32.9167 171.498 33.0303 170.847 33.1364C170.195 33.2273 169.604 33.3106 169.074 33.3864C167.938 33.553 166.945 33.8182 166.097 34.1818C165.248 34.5455 164.589 35.0379 164.119 35.6591C163.65 36.2652 163.415 37.0227 163.415 37.9318C163.415 39.25 163.892 40.2576 164.847 40.9545C165.816 41.6364 167.044 41.9773 168.528 41.9773ZM13.3949 65C13.2358 64.4205 13.0028 63.8778 12.696 63.3722C12.3892 62.8608 12.0085 62.4148 11.554 62.0341C11.1051 61.6477 10.5852 61.3466 9.99432 61.1307C9.40909 60.9148 8.75568 60.8068 8.03409 60.8068C6.89773 60.8068 5.88068 61.1023 4.98295 61.6932C4.08523 62.2841 3.375 63.1364 2.85227 64.25C2.33523 65.3636 2.0767 66.7045 2.0767 68.2727C2.0767 69.8352 2.33807 71.1733 2.8608 72.2869C3.38352 73.4006 4.09943 74.2557 5.00852 74.8523C5.9233 75.4432 6.96875 75.7386 8.14489 75.7386C9.21875 75.7386 10.1676 75.5 10.9915 75.0227C11.8153 74.5455 12.4574 73.8636 12.9176 72.9773C13.3835 72.0909 13.6108 71.0369 13.5994 69.8153L14.1108 69.9773H8.51989V68.5455H15.1506V69.9773C15.1506 71.4659 14.8494 72.7528 14.2472 73.8381C13.6449 74.9233 12.8182 75.7614 11.767 76.3523C10.7159 76.9432 9.50852 77.2386 8.14489 77.2386C6.62216 77.2386 5.28977 76.8722 4.14773 76.1392C3.00568 75.4006 2.11648 74.3608 1.48011 73.0199C0.849432 71.6733 0.534091 70.0909 0.534091 68.2727C0.534091 66.9034 0.715909 65.6676 1.07955 64.5653C1.44318 63.4631 1.95739 62.5199 2.62216 61.7358C3.29261 60.9517 4.08523 60.3523 5 59.9375C5.91477 59.517 6.92614 59.3068 8.03409 59.3068C8.98864 59.3068 9.8608 59.4574 10.6506 59.7585C11.446 60.0597 12.1449 60.4744 12.7472 61.0028C13.3551 61.5256 13.8523 62.1307 14.2386 62.8182C14.6307 63.5 14.8949 64.2273 15.0312 65H13.3949ZM18.7919 77V63.9091H20.2663V65.9205H20.3771C20.6385 65.2614 21.093 64.7301 21.7408 64.3267C22.3942 63.9176 23.1328 63.7131 23.9567 63.7131C24.0817 63.7131 24.2209 63.7159 24.3743 63.7216C24.5277 63.7273 24.6555 63.733 24.7578 63.7386V65.2812C24.6896 65.2699 24.5703 65.2528 24.3999 65.2301C24.2294 65.2074 24.0447 65.196 23.8459 65.196C23.1641 65.196 22.5561 65.3409 22.022 65.6307C21.4936 65.9148 21.076 66.3097 20.7692 66.8153C20.4624 67.321 20.3089 67.8977 20.3089 68.5455V77H18.7919ZM32.0362 77.2727C30.9055 77.2727 29.9055 76.9858 29.0362 76.4119C28.1726 75.8381 27.4964 75.0455 27.0078 74.0341C26.5192 73.017 26.2749 71.8437 26.2749 70.5142C26.2749 69.1733 26.5192 67.9943 27.0078 66.9773C27.4964 65.9545 28.1726 65.1591 29.0362 64.5909C29.9055 64.017 30.9055 63.7301 32.0362 63.7301C33.1669 63.7301 34.1641 64.017 35.0277 64.5909C35.8913 65.1648 36.5675 65.9602 37.0561 66.9773C37.5504 67.9943 37.7976 69.1733 37.7976 70.5142C37.7976 71.8437 37.5533 73.017 37.0646 74.0341C36.576 75.0455 35.897 75.8381 35.0277 76.4119C34.1641 76.9858 33.1669 77.2727 32.0362 77.2727ZM32.0362 75.8835C32.9453 75.8835 33.7152 75.6392 34.3459 75.1506C34.9766 74.6619 35.4538 74.0114 35.7777 73.1989C36.1072 72.3864 36.272 71.4915 36.272 70.5142C36.272 69.5369 36.1072 68.6392 35.7777 67.821C35.4538 67.0028 34.9766 66.3466 34.3459 65.8523C33.7152 65.358 32.9453 65.1108 32.0362 65.1108C31.1328 65.1108 30.3629 65.358 29.7266 65.8523C29.0959 66.3466 28.6158 67.0028 28.2862 67.821C27.9624 68.6392 27.8004 69.5369 27.8004 70.5142C27.8004 71.4915 27.9624 72.3864 28.2862 73.1989C28.6158 74.0114 29.0959 74.6619 29.7266 75.1506C30.3572 75.6392 31.1271 75.8835 32.0362 75.8835ZM49.446 71.9972V63.9091H50.9631V77H49.446V74.8267H49.3267C49.0199 75.4972 48.5341 76.0568 47.8693 76.5057C47.2045 76.9489 46.392 77.1705 45.4318 77.1705C44.5966 77.1705 43.8551 76.9886 43.2074 76.625C42.5597 76.2557 42.0511 75.7159 41.6818 75.0057C41.3125 74.2955 41.1278 73.4233 41.1278 72.3892V63.9091H42.6449V72.2955C42.6449 73.3182 42.946 74.142 43.5483 74.767C44.1506 75.3864 44.9233 75.696 45.8665 75.696C46.4574 75.696 47.0256 75.554 47.571 75.2699C48.1165 74.9858 48.5653 74.571 48.9176 74.0256C49.2699 73.4744 49.446 72.7983 49.446 71.9972ZM54.9794 81.9091V63.9091H56.4538V66.4062H56.6328C56.8146 66.0142 57.0646 65.6136 57.3828 65.2045C57.701 64.7898 58.1214 64.4403 58.6442 64.1562C59.1726 63.8722 59.8374 63.7301 60.6385 63.7301C61.718 63.7301 62.6612 64.0142 63.468 64.5824C64.2805 65.1449 64.9112 65.9347 65.3601 66.9517C65.8146 67.9631 66.0419 69.142 66.0419 70.4886C66.0419 71.8409 65.8146 73.0256 65.3601 74.0426C64.9112 75.0597 64.2805 75.8523 63.468 76.4205C62.6612 76.9886 61.7237 77.2727 60.6555 77.2727C59.8658 77.2727 59.2038 77.1307 58.6697 76.8466C58.1413 76.5625 57.7124 76.2131 57.3828 75.7983C57.0589 75.3778 56.8089 74.9687 56.6328 74.571H56.4964V81.9091H54.9794ZM56.4794 70.4631C56.4794 71.5199 56.6357 72.4574 56.9482 73.2756C57.2663 74.0881 57.7209 74.7273 58.3118 75.1932C58.9084 75.6534 59.63 75.8835 60.4766 75.8835C61.3459 75.8835 62.0788 75.6449 62.6754 75.1676C63.2777 74.6847 63.7351 74.0341 64.0476 73.2159C64.3658 72.3977 64.5249 71.4801 64.5249 70.4631C64.5249 69.4574 64.3686 68.5511 64.0561 67.7443C63.7493 66.9375 63.2947 66.2983 62.6925 65.8267C62.0902 65.3494 61.3516 65.1108 60.4766 65.1108C59.6243 65.1108 58.8999 65.3409 58.3033 65.8011C57.7067 66.2557 57.2521 66.8864 56.9396 67.6932C56.6328 68.4943 56.4794 69.4176 56.4794 70.4631Z" fill="white"/>
</svg>
