<svg width="97" height="18" viewBox="0 0 97 18" fill="none" xmlns="http://www.w3.org/2000/svg">
<path d="M9.90909 5.15625C9.80966 4.81061 9.66998 4.50521 9.49006 4.24006C9.31013 3.97017 9.08996 3.7429 8.82955 3.55824C8.57386 3.36884 8.2803 3.22443 7.94886 3.125C7.62216 3.02557 7.25994 2.97585 6.86222 2.97585C6.11884 2.97585 5.46544 3.16051 4.90199 3.52983C4.34328 3.89915 3.90767 4.43655 3.59517 5.14205C3.28267 5.8428 3.12642 6.69981 3.12642 7.71307C3.12642 8.72633 3.2803 9.58807 3.58807 10.2983C3.89583 11.0085 4.33144 11.5507 4.89489 11.9247C5.45833 12.294 6.12358 12.4787 6.89062 12.4787C7.58665 12.4787 8.18087 12.3556 8.6733 12.1094C9.17046 11.8584 9.54924 11.5057 9.80966 11.0511C10.0748 10.5966 10.2074 10.0592 10.2074 9.43892L10.8324 9.53125H7.08239V7.21591H13.169V9.0483C13.169 10.3267 12.8991 11.4252 12.3594 12.3438C11.8196 13.2576 11.0762 13.9631 10.1293 14.4602C9.18229 14.9527 8.09801 15.1989 6.87642 15.1989C5.51278 15.1989 4.31487 14.8982 3.28267 14.2969C2.25047 13.6908 1.44555 12.8314 0.867898 11.7188C0.294981 10.6013 0.00852273 9.27557 0.00852273 7.74148C0.00852273 6.5625 0.178977 5.51136 0.519886 4.58807C0.86553 3.66004 1.34848 2.87405 1.96875 2.23011C2.58902 1.58617 3.31108 1.09612 4.13494 0.759943C4.95881 0.423768 5.85133 0.255681 6.8125 0.255681C7.63636 0.255681 8.40341 0.37642 9.11364 0.617898C9.82386 0.85464 10.4536 1.19081 11.0028 1.62642C11.5568 2.06203 12.009 2.58049 12.3594 3.18182C12.7098 3.77841 12.9347 4.43655 13.0341 5.15625H9.90909ZM20.3938 15.2131C19.2717 15.2131 18.3058 14.9858 17.4961 14.5312C16.6912 14.072 16.0709 13.4233 15.6353 12.5852C15.1997 11.7424 14.9819 10.7457 14.9819 9.59517C14.9819 8.47301 15.1997 7.48816 15.6353 6.64062C16.0709 5.79309 16.6841 5.13258 17.4748 4.65909C18.2702 4.18561 19.203 3.94886 20.2731 3.94886C20.9928 3.94886 21.6628 4.06487 22.283 4.29688C22.908 4.52415 23.4525 4.86742 23.9165 5.3267C24.3853 5.78598 24.7499 6.36364 25.0103 7.05966C25.2707 7.75095 25.4009 8.56061 25.4009 9.48864V10.3196H16.1893V8.4446H22.5529C22.5529 8.009 22.4582 7.62311 22.2688 7.28693C22.0794 6.95076 21.8166 6.68797 21.4805 6.49858C21.149 6.30445 20.7631 6.20739 20.3228 6.20739C19.8635 6.20739 19.4563 6.31392 19.1012 6.52699C18.7508 6.73532 18.4762 7.01705 18.2773 7.37216C18.0785 7.72254 17.9767 8.11316 17.9719 8.54403V10.3267C17.9719 10.8665 18.0714 11.3329 18.2702 11.7259C18.4738 12.1188 18.7603 12.4219 19.1296 12.6349C19.4989 12.848 19.9369 12.9545 20.4435 12.9545C20.7797 12.9545 21.0875 12.9072 21.3668 12.8125C21.6462 12.7178 21.8853 12.5758 22.0842 12.3864C22.283 12.197 22.4345 11.965 22.5387 11.6903L25.337 11.875C25.195 12.5473 24.9038 13.1345 24.4634 13.6364C24.0278 14.1335 23.4644 14.5218 22.7731 14.8011C22.0865 15.0758 21.2934 15.2131 20.3938 15.2131ZM27.3754 15V4.09091H30.3086V5.99432H30.4222C30.6211 5.31723 30.9549 4.80587 31.4237 4.46023C31.8924 4.10985 32.4322 3.93466 33.043 3.93466C33.1945 3.93466 33.3578 3.94413 33.533 3.96307C33.7082 3.98201 33.8621 4.00805 33.9947 4.04119V6.72585C33.8526 6.68324 33.6561 6.64536 33.4052 6.61222C33.1542 6.57907 32.9246 6.5625 32.7163 6.5625C32.2712 6.5625 31.8735 6.65956 31.5231 6.85369C31.1774 7.04309 30.9028 7.30824 30.6992 7.64915C30.5004 7.99006 30.4009 8.38305 30.4009 8.82812V15H27.3754ZM38.5845 8.69318V15H35.5589V4.09091H38.4425V6.01562H38.5703C38.8118 5.38116 39.2166 4.87926 39.7848 4.50994C40.353 4.13589 41.0419 3.94886 41.8516 3.94886C42.6091 3.94886 43.2696 4.11458 43.8331 4.44602C44.3965 4.77746 44.8345 5.25095 45.147 5.86648C45.4595 6.47727 45.6158 7.20644 45.6158 8.05398V15H42.5902V8.59375C42.5949 7.92614 42.4245 7.4053 42.0788 7.03125C41.7332 6.65246 41.2573 6.46307 40.6513 6.46307C40.2441 6.46307 39.8842 6.55066 39.5717 6.72585C39.264 6.90104 39.0225 7.15672 38.8473 7.4929C38.6768 7.82434 38.5893 8.22443 38.5845 8.69318ZM51.1112 15.206C50.4151 15.206 49.7949 15.0852 49.2504 14.8438C48.7058 14.5975 48.275 14.2353 47.9577 13.7571C47.6452 13.2741 47.489 12.6728 47.489 11.9531C47.489 11.3471 47.6003 10.8381 47.8228 10.4261C48.0453 10.0142 48.3484 9.68277 48.7319 9.43182C49.1154 9.18087 49.551 8.99148 50.0387 8.86364C50.5311 8.7358 51.0472 8.64583 51.587 8.59375C52.2215 8.52746 52.7328 8.46591 53.1211 8.40909C53.5094 8.34754 53.7911 8.25758 53.9663 8.1392C54.1415 8.02083 54.229 7.84564 54.229 7.61364V7.57102C54.229 7.12121 54.087 6.7732 53.8029 6.52699C53.5236 6.28078 53.1258 6.15767 52.6097 6.15767C52.0652 6.15767 51.632 6.27841 51.31 6.51989C50.988 6.75663 50.775 7.05492 50.6708 7.41477L47.8725 7.1875C48.0146 6.52462 48.2939 5.9517 48.7106 5.46875C49.1272 4.98106 49.6647 4.60701 50.3228 4.34659C50.9857 4.08144 51.7527 3.94886 52.6239 3.94886C53.23 3.94886 53.81 4.01989 54.364 4.16193C54.9227 4.30398 55.4175 4.52415 55.8484 4.82244C56.284 5.12074 56.6272 5.50426 56.8782 5.97301C57.1291 6.43703 57.2546 6.99337 57.2546 7.64205V15H54.3853V13.4872H54.3001C54.1249 13.8281 53.8905 14.1288 53.5969 14.3892C53.3034 14.6449 52.9506 14.8461 52.5387 14.9929C52.1268 15.1349 51.6509 15.206 51.1112 15.206ZM51.9776 13.1179C52.4227 13.1179 52.8157 13.0303 53.1566 12.8551C53.4975 12.6752 53.765 12.4337 53.9592 12.1307C54.1533 11.8277 54.2504 11.4844 54.2504 11.1009V9.94318C54.1557 10.0047 54.0255 10.0616 53.8597 10.1136C53.6987 10.161 53.5165 10.206 53.3129 10.2486C53.1093 10.2865 52.9057 10.322 52.7021 10.3551C52.4985 10.3835 52.3138 10.4096 52.1481 10.4332C51.793 10.4853 51.4828 10.5682 51.2177 10.6818C50.9525 10.7955 50.7466 10.9493 50.5998 11.1435C50.453 11.3329 50.3796 11.5696 50.3796 11.8537C50.3796 12.2656 50.5288 12.5805 50.8271 12.7983C51.1301 13.0114 51.5136 13.1179 51.9776 13.1179ZM70.2209 9C70.1413 8.71023 70.0249 8.43892 69.8714 8.18608C69.718 7.9304 69.5277 7.70739 69.3004 7.51705C69.076 7.32386 68.8161 7.1733 68.5206 7.06534C68.228 6.95739 67.9013 6.90341 67.5405 6.90341C66.9723 6.90341 66.4638 7.05114 66.0149 7.34659C65.5661 7.64205 65.2109 8.06818 64.9496 8.625C64.6911 9.18182 64.5618 9.85227 64.5618 10.6364C64.5618 11.4176 64.6925 12.0866 64.9538 12.6435C65.2152 13.2003 65.5732 13.6278 66.0277 13.9261C66.4851 14.2216 67.0078 14.3693 67.5959 14.3693C68.1328 14.3693 68.6072 14.25 69.0192 14.0114C69.4311 13.7727 69.7521 13.4318 69.9822 12.9886C70.2152 12.5455 70.3288 12.0185 70.3232 11.4077L70.5788 11.4886H67.7834V10.7727H71.0987V11.4886C71.0987 12.233 70.9482 12.8764 70.647 13.419C70.3459 13.9616 69.9325 14.3807 69.407 14.6761C68.8814 14.9716 68.2777 15.1193 67.5959 15.1193C66.8345 15.1193 66.1683 14.9361 65.5973 14.5696C65.0263 14.2003 64.5817 13.6804 64.2635 13.0099C63.9482 12.3366 63.7905 11.5455 63.7905 10.6364C63.7905 9.9517 63.8814 9.33381 64.0632 8.78267C64.245 8.23153 64.5021 7.75994 64.8345 7.3679C65.1697 6.97585 65.5661 6.67614 66.0234 6.46875C66.4808 6.25852 66.9865 6.15341 67.5405 6.15341C68.0178 6.15341 68.4538 6.22869 68.8487 6.37926C69.2464 6.52983 69.5959 6.73722 69.897 7.00142C70.201 7.26278 70.4496 7.56534 70.6428 7.90909C70.8388 8.25 70.9709 8.61364 71.0391 9H70.2209ZM72.9194 15V8.45455H73.6566V9.46023H73.712C73.8427 9.13068 74.07 8.86506 74.3938 8.66335C74.7205 8.45881 75.0898 8.35653 75.5018 8.35653C75.5643 8.35653 75.6339 8.35795 75.7106 8.3608C75.7873 8.36364 75.8512 8.36648 75.9023 8.36932V9.14062C75.8683 9.13494 75.8086 9.12642 75.7234 9.11506C75.6381 9.10369 75.5458 9.09801 75.4464 9.09801C75.1055 9.09801 74.8015 9.17045 74.5344 9.31534C74.2702 9.45739 74.0614 9.65483 73.908 9.90767C73.7546 10.1605 73.6779 10.4489 73.6779 10.7727V15H72.9194ZM79.5415 15.1364C78.9762 15.1364 78.4762 14.9929 78.0415 14.706C77.6097 14.419 77.2717 14.0227 77.0273 13.517C76.783 13.0085 76.6609 12.4219 76.6609 11.7571C76.6609 11.0866 76.783 10.4972 77.0273 9.98864C77.2717 9.47727 77.6097 9.07955 78.0415 8.79545C78.4762 8.50852 78.9762 8.36506 79.5415 8.36506C80.1069 8.36506 80.6055 8.50852 81.0373 8.79545C81.4691 9.08239 81.8072 9.48011 82.0515 9.98864C82.2987 10.4972 82.4222 11.0866 82.4222 11.7571C82.4222 12.4219 82.3001 13.0085 82.0558 13.517C81.8114 14.0227 81.4719 14.419 81.0373 14.706C80.6055 14.9929 80.1069 15.1364 79.5415 15.1364ZM79.5415 14.4418C79.9961 14.4418 80.381 14.3196 80.6964 14.0753C81.0117 13.831 81.2504 13.5057 81.4123 13.0994C81.5771 12.6932 81.6594 12.2457 81.6594 11.7571C81.6594 11.2685 81.5771 10.8196 81.4123 10.4105C81.2504 10.0014 81.0117 9.6733 80.6964 9.42614C80.381 9.17898 79.9961 9.0554 79.5415 9.0554C79.0898 9.0554 78.7049 9.17898 78.3867 9.42614C78.0714 9.6733 77.8313 10.0014 77.6665 10.4105C77.5046 10.8196 77.4237 11.2685 77.4237 11.7571C77.4237 12.2457 77.5046 12.6932 77.6665 13.0994C77.8313 13.5057 78.0714 13.831 78.3867 14.0753C78.7021 14.3196 79.087 14.4418 79.5415 14.4418ZM88.2464 12.4986V8.45455H89.005V15H88.2464V13.9134H88.1868C88.0334 14.2486 87.7905 14.5284 87.4581 14.7528C87.1257 14.9744 86.7195 15.0852 86.2393 15.0852C85.8217 15.0852 85.451 14.9943 85.1271 14.8125C84.8033 14.6278 84.549 14.358 84.3643 14.0028C84.1797 13.6477 84.0874 13.2116 84.0874 12.6946V8.45455H84.8459V12.6477C84.8459 13.1591 84.9964 13.571 85.2976 13.8835C85.5987 14.1932 85.9851 14.348 86.4567 14.348C86.7521 14.348 87.0362 14.277 87.3089 14.1349C87.5817 13.9929 87.8061 13.7855 87.9822 13.5128C88.1584 13.2372 88.2464 12.8991 88.2464 12.4986ZM91.0131 17.4545V8.45455H91.7504V9.70312H91.8398C91.9308 9.5071 92.0558 9.30682 92.2148 9.10227C92.3739 8.89489 92.5842 8.72017 92.8455 8.57812C93.1097 8.43608 93.4421 8.36506 93.8427 8.36506C94.3825 8.36506 94.854 8.5071 95.2575 8.79119C95.6637 9.07244 95.979 9.46733 96.2035 9.97585C96.4308 10.4815 96.5444 11.071 96.5444 11.7443C96.5444 12.4205 96.4308 13.0128 96.2035 13.5213C95.979 14.0298 95.6637 14.4261 95.2575 14.7102C94.854 14.9943 94.3853 15.1364 93.8512 15.1364C93.4563 15.1364 93.1254 15.0653 92.8583 14.9233C92.5941 14.7812 92.3796 14.6065 92.2148 14.3991C92.0529 14.1889 91.9279 13.9844 91.8398 13.7855H91.7717V17.4545H91.0131ZM91.7631 11.7315C91.7631 12.2599 91.8413 12.7287 91.9975 13.1378C92.1566 13.544 92.3839 13.8636 92.6793 14.0966C92.9776 14.3267 93.3384 14.4418 93.7617 14.4418C94.1964 14.4418 94.5629 14.3224 94.8612 14.0838C95.1623 13.8423 95.391 13.517 95.5472 13.108C95.7063 12.6989 95.7859 12.2401 95.7859 11.7315C95.7859 11.2287 95.7077 10.7756 95.5515 10.3722C95.3981 9.96875 95.1708 9.64915 94.8697 9.41335C94.5685 9.17472 94.1992 9.0554 93.7617 9.0554C93.3356 9.0554 92.9734 9.17045 92.6751 9.40057C92.3768 9.62784 92.1495 9.94318 91.9933 10.3466C91.8398 10.7472 91.7631 11.2088 91.7631 11.7315Z" fill="white"/>
</svg>
