<svg width="21" height="20" viewBox="0 0 21 20" fill="none" xmlns="http://www.w3.org/2000/svg">
<path d="M19.2913 2.60999C18.7805 2.099 18.1741 1.69364 17.5066 1.41708C16.8392 1.14052 16.1238 0.998169 15.4013 0.998169C14.6788 0.998169 13.9634 1.14052 13.2959 1.41708C12.6285 1.69364 12.022 2.099 11.5113 2.60999L10.4513 3.66999L9.39129 2.60999C8.3596 1.5783 6.96032 0.998704 5.50129 0.998704C4.04226 0.998704 2.64298 1.5783 1.61129 2.60999C0.579599 3.64169 1.08706e-08 5.04096 0 6.49999C-1.08706e-08 7.95903 0.579599 9.3583 1.61129 10.39L2.67129 11.45L10.4513 19.23L18.2313 11.45L19.2913 10.39C19.8023 9.87924 20.2076 9.27281 20.4842 8.60535C20.7608 7.93789 20.9031 7.22248 20.9031 6.49999C20.9031 5.77751 20.7608 5.0621 20.4842 4.39464C20.2076 3.72718 19.8023 3.12075 19.2913 2.60999V2.60999Z" fill="#CF2828"/>
</svg>
