<svg width="216" height="33" viewBox="0 0 216 33" fill="none" xmlns="http://www.w3.org/2000/svg">
<path d="M10.268 26.432C8.252 26.432 6.32 26.168 4.472 25.64C2.624 25.088 1.136 24.38 0.00800003 23.516L1.988 19.124C3.068 19.892 4.34 20.528 5.804 21.032C7.292 21.512 8.792 21.752 10.304 21.752C11.456 21.752 12.38 21.644 13.076 21.428C13.796 21.188 14.324 20.864 14.66 20.456C14.996 20.048 15.164 19.58 15.164 19.052C15.164 18.38 14.9 17.852 14.372 17.468C13.844 17.06 13.148 16.736 12.284 16.496C11.42 16.232 10.46 15.992 9.404 15.776C8.372 15.536 7.328 15.248 6.272 14.912C5.24 14.576 4.292 14.144 3.428 13.616C2.564 13.088 1.856 12.392 1.304 11.528C0.776 10.664 0.512 9.56 0.512 8.216C0.512 6.776 0.896 5.468 1.664 4.292C2.456 3.092 3.632 2.144 5.192 1.448C6.776 0.727999 8.756 0.368 11.132 0.368C12.716 0.368 14.276 0.559999 15.812 0.943999C17.348 1.304 18.704 1.856 19.88 2.6L18.08 7.028C16.904 6.356 15.728 5.864 14.552 5.552C13.376 5.216 12.224 5.048 11.096 5.048C9.968 5.048 9.044 5.18 8.324 5.444C7.604 5.708 7.088 6.056 6.776 6.488C6.464 6.896 6.308 7.376 6.308 7.928C6.308 8.576 6.572 9.104 7.1 9.512C7.628 9.896 8.324 10.208 9.188 10.448C10.052 10.688 11 10.928 12.032 11.168C13.088 11.408 14.132 11.684 15.164 11.996C16.22 12.308 17.18 12.728 18.044 13.256C18.908 13.784 19.604 14.48 20.132 15.344C20.684 16.208 20.96 17.3 20.96 18.62C20.96 20.036 20.564 21.332 19.772 22.508C18.98 23.684 17.792 24.632 16.208 25.352C14.648 26.072 12.668 26.432 10.268 26.432ZM35.997 26.288C34.365 26.288 32.937 25.928 31.713 25.208C30.489 24.488 29.529 23.396 28.833 21.932C28.161 20.444 27.825 18.572 27.825 16.316C27.825 14.036 28.149 12.164 28.797 10.7C29.445 9.236 30.381 8.144 31.605 7.424C32.829 6.704 34.293 6.344 35.997 6.344C37.821 6.344 39.453 6.764 40.893 7.604C42.357 8.42 43.509 9.572 44.349 11.06C45.213 12.548 45.645 14.3 45.645 16.316C45.645 18.356 45.213 20.12 44.349 21.608C43.509 23.096 42.357 24.248 40.893 25.064C39.453 25.88 37.821 26.288 35.997 26.288ZM24.549 32.984V6.632H29.913V10.592L29.805 16.352L30.165 22.076V32.984H24.549ZM35.025 21.68C35.961 21.68 36.789 21.464 37.509 21.032C38.253 20.6 38.841 19.988 39.273 19.196C39.729 18.38 39.957 17.42 39.957 16.316C39.957 15.188 39.729 14.228 39.273 13.436C38.841 12.644 38.253 12.032 37.509 11.6C36.789 11.168 35.961 10.952 35.025 10.952C34.089 10.952 33.249 11.168 32.505 11.6C31.761 12.032 31.173 12.644 30.741 13.436C30.309 14.228 30.093 15.188 30.093 16.316C30.093 17.42 30.309 18.38 30.741 19.196C31.173 19.988 31.761 20.6 32.505 21.032C33.249 21.464 34.089 21.68 35.025 21.68ZM60.9681 26V22.22L60.6081 21.392V14.624C60.6081 13.424 60.2361 12.488 59.4921 11.816C58.7721 11.144 57.6561 10.808 56.1441 10.808C55.1121 10.808 54.0921 10.976 53.0841 11.312C52.1001 11.624 51.2601 12.056 50.5641 12.608L48.5481 8.684C49.6041 7.94 50.8761 7.364 52.3641 6.956C53.8521 6.548 55.3641 6.344 56.9001 6.344C59.8521 6.344 62.1441 7.04 63.7761 8.432C65.4081 9.824 66.2241 11.996 66.2241 14.948V26H60.9681ZM55.0641 26.288C53.5521 26.288 52.2561 26.036 51.1761 25.532C50.0961 25.004 49.2681 24.296 48.6921 23.408C48.1161 22.52 47.8281 21.524 47.8281 20.42C47.8281 19.268 48.1041 18.26 48.6561 17.396C49.2321 16.532 50.1321 15.86 51.3561 15.38C52.5801 14.876 54.1761 14.624 56.1441 14.624H61.2921V17.9H56.7561C55.4361 17.9 54.5241 18.116 54.0201 18.548C53.5401 18.98 53.3001 19.52 53.3001 20.168C53.3001 20.888 53.5761 21.464 54.1281 21.896C54.7041 22.304 55.4841 22.508 56.4681 22.508C57.4041 22.508 58.2441 22.292 58.9881 21.86C59.7321 21.404 60.2721 20.744 60.6081 19.88L61.4721 22.472C61.0641 23.72 60.3201 24.668 59.2401 25.316C58.1601 25.964 56.7681 26.288 55.0641 26.288ZM80.8075 26.288C78.7195 26.288 76.8595 25.868 75.2275 25.028C73.5955 24.164 72.3115 22.976 71.3755 21.464C70.4635 19.952 70.0075 18.236 70.0075 16.316C70.0075 14.372 70.4635 12.656 71.3755 11.168C72.3115 9.656 73.5955 8.48 75.2275 7.64C76.8595 6.776 78.7195 6.344 80.8075 6.344C82.8475 6.344 84.6235 6.776 86.1355 7.64C87.6475 8.48 88.7635 9.692 89.4835 11.276L85.1275 13.616C84.6235 12.704 83.9875 12.032 83.2195 11.6C82.4755 11.168 81.6595 10.952 80.7715 10.952C79.8115 10.952 78.9475 11.168 78.1795 11.6C77.4115 12.032 76.7995 12.644 76.3435 13.436C75.9115 14.228 75.6955 15.188 75.6955 16.316C75.6955 17.444 75.9115 18.404 76.3435 19.196C76.7995 19.988 77.4115 20.6 78.1795 21.032C78.9475 21.464 79.8115 21.68 80.7715 21.68C81.6595 21.68 82.4755 21.476 83.2195 21.068C83.9875 20.636 84.6235 19.952 85.1275 19.016L89.4835 21.392C88.7635 22.952 87.6475 24.164 86.1355 25.028C84.6235 25.868 82.8475 26.288 80.8075 26.288ZM102.083 26.288C99.8749 26.288 97.9309 25.856 96.2509 24.992C94.5949 24.128 93.3109 22.952 92.3989 21.464C91.4869 19.952 91.0309 18.236 91.0309 16.316C91.0309 14.372 91.4749 12.656 92.3629 11.168C93.2749 9.656 94.5109 8.48 96.0709 7.64C97.6309 6.776 99.3949 6.344 101.363 6.344C103.259 6.344 104.963 6.752 106.475 7.568C108.011 8.36 109.223 9.512 110.111 11.024C110.999 12.512 111.443 14.3 111.443 16.388C111.443 16.604 111.431 16.856 111.407 17.144C111.383 17.408 111.359 17.66 111.335 17.9H95.6029V14.624H108.383L106.223 15.596C106.223 14.588 106.019 13.712 105.611 12.968C105.203 12.224 104.639 11.648 103.919 11.24C103.199 10.808 102.359 10.592 101.399 10.592C100.439 10.592 99.5869 10.808 98.8429 11.24C98.1229 11.648 97.5589 12.236 97.1509 13.004C96.7429 13.748 96.5389 14.636 96.5389 15.668V16.532C96.5389 17.588 96.7669 18.524 97.2229 19.34C97.7029 20.132 98.3629 20.744 99.2029 21.176C100.067 21.584 101.075 21.788 102.227 21.788C103.259 21.788 104.159 21.632 104.927 21.32C105.719 21.008 106.439 20.54 107.087 19.916L110.075 23.156C109.187 24.164 108.071 24.944 106.727 25.496C105.383 26.024 103.835 26.288 102.083 26.288Z" fill="#715BF5"/>
<path d="M131.762 26V1.484H122.402V0.799998H141.842V1.484H132.482V26H131.762ZM151.244 26.108C149.444 26.108 147.848 25.712 146.456 24.92C145.064 24.104 143.96 22.988 143.144 21.572C142.352 20.132 141.956 18.5 141.956 16.676C141.956 14.828 142.328 13.208 143.072 11.816C143.816 10.4 144.836 9.296 146.132 8.504C147.452 7.688 148.928 7.28 150.56 7.28C152.192 7.28 153.656 7.676 154.952 8.468C156.272 9.236 157.304 10.316 158.048 11.708C158.816 13.1 159.2 14.696 159.2 16.496C159.2 16.52 159.2 16.544 159.2 16.568C159.2 16.592 159.2 16.628 159.2 16.676H142.352V15.992H158.804L158.516 16.532C158.516 14.9 158.168 13.436 157.472 12.14C156.776 10.844 155.828 9.824 154.628 9.08C153.452 8.336 152.096 7.964 150.56 7.964C149.048 7.964 147.692 8.336 146.492 9.08C145.292 9.824 144.344 10.844 143.648 12.14C142.976 13.436 142.64 14.9 142.64 16.532V16.676C142.64 18.38 143.012 19.892 143.756 21.212C144.5 22.532 145.52 23.564 146.816 24.308C148.112 25.052 149.588 25.424 151.244 25.424C152.492 25.424 153.668 25.184 154.772 24.704C155.9 24.224 156.836 23.504 157.58 22.544L158.084 23.048C157.268 24.056 156.26 24.824 155.06 25.352C153.86 25.856 152.588 26.108 151.244 26.108ZM176.633 26V21.572V20.96V13.832C176.633 11.888 176.129 10.424 175.121 9.44C174.113 8.456 172.649 7.964 170.729 7.964C169.337 7.964 168.065 8.204 166.913 8.684C165.761 9.164 164.777 9.788 163.961 10.556L163.457 10.052C164.345 9.212 165.425 8.54 166.697 8.036C167.969 7.532 169.301 7.28 170.693 7.28C172.853 7.28 174.497 7.832 175.625 8.936C176.777 10.04 177.353 11.66 177.353 13.796V26H176.633ZM169.541 26.108C168.149 26.108 166.961 25.892 165.977 25.46C164.993 25.028 164.237 24.416 163.709 23.624C163.205 22.832 162.953 21.92 162.953 20.888C162.953 20 163.157 19.184 163.565 18.44C163.997 17.672 164.693 17.06 165.653 16.604C166.613 16.124 167.921 15.884 169.577 15.884H177.029V16.568H169.541C167.429 16.568 165.917 16.976 165.005 17.792C164.117 18.584 163.673 19.604 163.673 20.852C163.673 22.244 164.189 23.36 165.221 24.2C166.253 25.016 167.693 25.424 169.541 25.424C171.341 25.424 172.817 25.016 173.969 24.2C175.145 23.36 176.033 22.184 176.633 20.672L176.993 21.14C176.489 22.628 175.601 23.828 174.329 24.74C173.081 25.652 171.485 26.108 169.541 26.108ZM208.573 7.28C210.061 7.28 211.345 7.58 212.425 8.18C213.505 8.756 214.333 9.62 214.909 10.772C215.509 11.924 215.809 13.34 215.809 15.02V26H215.089V15.02C215.089 12.716 214.513 10.964 213.361 9.764C212.233 8.564 210.649 7.964 208.609 7.964C207.025 7.964 205.657 8.3 204.505 8.972C203.377 9.62 202.501 10.544 201.877 11.744C201.277 12.92 200.977 14.3 200.977 15.884V26H200.257V15.02C200.257 12.716 199.681 10.964 198.529 9.764C197.401 8.564 195.817 7.964 193.777 7.964C192.193 7.964 190.825 8.3 189.673 8.972C188.545 9.62 187.669 10.544 187.045 11.744C186.445 12.92 186.145 14.3 186.145 15.884V26H185.425V7.388H186.145V12.644L186.073 12.536C186.601 10.928 187.525 9.656 188.845 8.72C190.165 7.76 191.797 7.28 193.741 7.28C195.661 7.28 197.245 7.772 198.493 8.756C199.741 9.716 200.521 11.156 200.833 13.076L200.725 13.04C201.181 11.336 202.081 9.956 203.425 8.9C204.793 7.82 206.509 7.28 208.573 7.28Z" fill="black"/>
</svg>
