<svg width="193" height="30" viewBox="0 0 193 30" fill="none" xmlns="http://www.w3.org/2000/svg">
<path d="M10.016 23.384C8.224 23.384 6.50667 23.1493 4.864 22.68C3.22133 22.1893 1.89867 21.56 0.896 20.792L2.656 16.888C3.616 17.5707 4.74667 18.136 6.048 18.584C7.37067 19.0107 8.704 19.224 10.048 19.224C11.072 19.224 11.8933 19.128 12.512 18.936C13.152 18.7227 13.6213 18.4347 13.92 18.072C14.2187 17.7093 14.368 17.2933 14.368 16.824C14.368 16.2267 14.1333 15.7573 13.664 15.416C13.1947 15.0533 12.576 14.7653 11.808 14.552C11.04 14.3173 10.1867 14.104 9.248 13.912C8.33067 13.6987 7.40267 13.4427 6.464 13.144C5.54667 12.8453 4.704 12.4613 3.936 11.992C3.168 11.5227 2.53867 10.904 2.048 10.136C1.57867 9.368 1.344 8.38667 1.344 7.192C1.344 5.912 1.68533 4.74933 2.368 3.704C3.072 2.63733 4.11733 1.79467 5.504 1.176C6.912 0.535999 8.672 0.216 10.784 0.216C12.192 0.216 13.5787 0.386666 14.944 0.727999C16.3093 1.048 17.5147 1.53867 18.56 2.2L16.96 6.136C15.9147 5.53867 14.8693 5.10133 13.824 4.824C12.7787 4.52533 11.7547 4.376 10.752 4.376C9.74933 4.376 8.928 4.49333 8.288 4.728C7.648 4.96267 7.18933 5.272 6.912 5.656C6.63467 6.01867 6.496 6.44533 6.496 6.936C6.496 7.512 6.73067 7.98133 7.2 8.344C7.66933 8.68533 8.288 8.96267 9.056 9.176C9.824 9.38933 10.6667 9.60267 11.584 9.816C12.5227 10.0293 13.4507 10.2747 14.368 10.552C15.3067 10.8293 16.16 11.2027 16.928 11.672C17.696 12.1413 18.3147 12.76 18.784 13.528C19.2747 14.296 19.52 15.2667 19.52 16.44C19.52 17.6987 19.168 18.8507 18.464 19.896C17.76 20.9413 16.704 21.784 15.296 22.424C13.9093 23.064 12.1493 23.384 10.016 23.384ZM32.8863 23.256C31.4356 23.256 30.1663 22.936 29.0783 22.296C27.9903 21.656 27.1369 20.6853 26.5183 19.384C25.9209 18.0613 25.6223 16.3973 25.6223 14.392C25.6223 12.3653 25.9103 10.7013 26.4863 9.4C27.0623 8.09867 27.8943 7.128 28.9823 6.488C30.0703 5.848 31.3716 5.528 32.8863 5.528C34.5076 5.528 35.9583 5.90133 37.2383 6.648C38.5396 7.37333 39.5636 8.39733 40.3103 9.72C41.0783 11.0427 41.4623 12.6 41.4623 14.392C41.4623 16.2053 41.0783 17.7733 40.3103 19.096C39.5636 20.4187 38.5396 21.4427 37.2383 22.168C35.9583 22.8933 34.5076 23.256 32.8863 23.256ZM22.7103 29.208V5.784H27.4783V9.304L27.3823 14.424L27.7023 19.512V29.208H22.7103ZM32.0223 19.16C32.8543 19.16 33.5903 18.968 34.2303 18.584C34.8916 18.2 35.4143 17.656 35.7983 16.952C36.2036 16.2267 36.4062 15.3733 36.4062 14.392C36.4062 13.3893 36.2036 12.536 35.7983 11.832C35.4143 11.128 34.8916 10.584 34.2303 10.2C33.5903 9.816 32.8543 9.624 32.0223 9.624C31.1903 9.624 30.4436 9.816 29.7823 10.2C29.1209 10.584 28.5983 11.128 28.2143 11.832C27.8303 12.536 27.6383 13.3893 27.6383 14.392C27.6383 15.3733 27.8303 16.2267 28.2143 16.952C28.5983 17.656 29.1209 18.2 29.7823 18.584C30.4436 18.968 31.1903 19.16 32.0223 19.16ZM55.0828 23V19.64L54.7628 18.904V12.888C54.7628 11.8213 54.4321 10.9893 53.7708 10.392C53.1308 9.79467 52.1388 9.496 50.7948 9.496C49.8774 9.496 48.9708 9.64533 48.0748 9.944C47.2001 10.2213 46.4534 10.6053 45.8348 11.096L44.0428 7.608C44.9814 6.94667 46.1121 6.43467 47.4348 6.072C48.7574 5.70933 50.1014 5.528 51.4668 5.528C54.0908 5.528 56.1281 6.14667 57.5788 7.384C59.0294 8.62133 59.7548 10.552 59.7548 13.176V23H55.0828ZM49.8348 23.256C48.4908 23.256 47.3388 23.032 46.3788 22.584C45.4188 22.1147 44.6828 21.4853 44.1708 20.696C43.6588 19.9067 43.4028 19.0213 43.4028 18.04C43.4028 17.016 43.6481 16.12 44.1388 15.352C44.6508 14.584 45.4508 13.9867 46.5388 13.56C47.6268 13.112 49.0454 12.888 50.7948 12.888H55.3708V15.8H51.3388C50.1654 15.8 49.3548 15.992 48.9068 16.376C48.4801 16.76 48.2668 17.24 48.2668 17.816C48.2668 18.456 48.5121 18.968 49.0028 19.352C49.5148 19.7147 50.2081 19.896 51.0828 19.896C51.9148 19.896 52.6614 19.704 53.3228 19.32C53.9841 18.9147 54.4641 18.328 54.7628 17.56L55.5308 19.864C55.1681 20.9733 54.5068 21.816 53.5468 22.392C52.5868 22.968 51.3494 23.256 49.8348 23.256ZM72.7178 23.256C70.8618 23.256 69.2084 22.8827 67.7578 22.136C66.3071 21.368 65.1658 20.312 64.3338 18.968C63.5231 17.624 63.1178 16.0987 63.1178 14.392C63.1178 12.664 63.5231 11.1387 64.3338 9.816C65.1658 8.472 66.3071 7.42667 67.7578 6.68C69.2084 5.912 70.8618 5.528 72.7178 5.528C74.5311 5.528 76.1098 5.912 77.4538 6.68C78.7978 7.42667 79.7898 8.504 80.4298 9.912L76.5578 11.992C76.1098 11.1813 75.5444 10.584 74.8618 10.2C74.2004 9.816 73.4751 9.624 72.6858 9.624C71.8324 9.624 71.0644 9.816 70.3818 10.2C69.6991 10.584 69.1551 11.128 68.7498 11.832C68.3658 12.536 68.1738 13.3893 68.1738 14.392C68.1738 15.3947 68.3658 16.248 68.7498 16.952C69.1551 17.656 69.6991 18.2 70.3818 18.584C71.0644 18.968 71.8324 19.16 72.6858 19.16C73.4751 19.16 74.2004 18.9787 74.8618 18.616C75.5444 18.232 76.1098 17.624 76.5578 16.792L80.4298 18.904C79.7898 20.2907 78.7978 21.368 77.4538 22.136C76.1098 22.8827 74.5311 23.256 72.7178 23.256ZM91.6293 23.256C89.6666 23.256 87.9386 22.872 86.4453 22.104C84.9733 21.336 83.8319 20.2907 83.0213 18.968C82.2106 17.624 81.8053 16.0987 81.8053 14.392C81.8053 12.664 82.1999 11.1387 82.9893 9.816C83.7999 8.472 84.8986 7.42667 86.2853 6.68C87.6719 5.912 89.2399 5.528 90.9893 5.528C92.6746 5.528 94.1893 5.89067 95.5333 6.616C96.8986 7.32 97.9759 8.344 98.7653 9.688C99.5546 11.0107 99.9493 12.6 99.9493 14.456C99.9493 14.648 99.9386 14.872 99.9173 15.128C99.8959 15.3627 99.8746 15.5867 99.8533 15.8H85.8693V12.888H97.2292L95.3093 13.752C95.3093 12.856 95.1279 12.0773 94.7653 11.416C94.4026 10.7547 93.9013 10.2427 93.2613 9.88C92.6213 9.496 91.8746 9.304 91.0213 9.304C90.1679 9.304 89.4106 9.496 88.7493 9.88C88.1093 10.2427 87.6079 10.7653 87.2453 11.448C86.8826 12.1093 86.7013 12.8987 86.7013 13.816V14.584C86.7013 15.5227 86.9039 16.3547 87.3093 17.08C87.7359 17.784 88.3226 18.328 89.0693 18.712C89.8373 19.0747 90.7333 19.256 91.7573 19.256C92.6746 19.256 93.4746 19.1173 94.1573 18.84C94.8613 18.5627 95.5013 18.1467 96.0773 17.592L98.7333 20.472C97.9439 21.368 96.9519 22.0613 95.7573 22.552C94.5626 23.0213 93.1866 23.256 91.6293 23.256Z" fill="#715BF5"/>
<path d="M118.01 23V1.208H109.691V0.599998H126.971V1.208H118.651V23H118.01ZM135.328 23.096C133.728 23.096 132.309 22.744 131.072 22.04C129.834 21.3147 128.853 20.3227 128.128 19.064C127.424 17.784 127.072 16.3333 127.072 14.712C127.072 13.0693 127.402 11.6293 128.064 10.392C128.725 9.13333 129.632 8.152 130.784 7.448C131.957 6.72267 133.269 6.36 134.72 6.36C136.17 6.36 137.472 6.712 138.624 7.416C139.797 8.09867 140.714 9.05867 141.376 10.296C142.058 11.5333 142.4 12.952 142.4 14.552C142.4 14.5733 142.4 14.5947 142.4 14.616C142.4 14.6373 142.4 14.6693 142.4 14.712H127.424V14.104H142.048L141.792 14.584C141.792 13.1333 141.482 11.832 140.864 10.68C140.245 9.528 139.402 8.62133 138.336 7.96C137.29 7.29867 136.085 6.968 134.72 6.968C133.376 6.968 132.17 7.29867 131.104 7.96C130.037 8.62133 129.194 9.528 128.576 10.68C127.978 11.832 127.68 13.1333 127.68 14.584V14.712C127.68 16.2267 128.01 17.5707 128.672 18.744C129.333 19.9173 130.24 20.8347 131.392 21.496C132.544 22.1573 133.856 22.488 135.328 22.488C136.437 22.488 137.482 22.2747 138.464 21.848C139.466 21.4213 140.298 20.7813 140.96 19.928L141.408 20.376C140.682 21.272 139.786 21.9547 138.72 22.424C137.653 22.872 136.522 23.096 135.328 23.096ZM157.896 23V19.064V18.52V12.184C157.896 10.456 157.448 9.15467 156.552 8.28C155.656 7.40533 154.355 6.968 152.648 6.968C151.411 6.968 150.28 7.18133 149.256 7.608C148.232 8.03467 147.358 8.58933 146.632 9.272L146.184 8.824C146.974 8.07733 147.934 7.48 149.064 7.032C150.195 6.584 151.379 6.36 152.616 6.36C154.536 6.36 155.998 6.85067 157 7.832C158.024 8.81333 158.536 10.2533 158.536 12.152V23H157.896ZM151.592 23.096C150.355 23.096 149.299 22.904 148.424 22.52C147.55 22.136 146.878 21.592 146.408 20.888C145.96 20.184 145.736 19.3733 145.736 18.456C145.736 17.6667 145.918 16.9413 146.28 16.28C146.664 15.5973 147.283 15.0533 148.136 14.648C148.99 14.2213 150.152 14.008 151.624 14.008H158.248V14.616H151.592C149.715 14.616 148.371 14.9787 147.56 15.704C146.771 16.408 146.376 17.3147 146.376 18.424C146.376 19.6613 146.835 20.6533 147.752 21.4C148.67 22.1253 149.95 22.488 151.592 22.488C153.192 22.488 154.504 22.1253 155.528 21.4C156.574 20.6533 157.363 19.608 157.896 18.264L158.216 18.68C157.768 20.0027 156.979 21.0693 155.848 21.88C154.739 22.6907 153.32 23.096 151.592 23.096ZM186.287 6.36C187.61 6.36 188.751 6.62667 189.711 7.16C190.671 7.672 191.407 8.44 191.919 9.464C192.453 10.488 192.719 11.7467 192.719 13.24V23H192.079V13.24C192.079 11.192 191.567 9.63467 190.543 8.568C189.541 7.50133 188.133 6.968 186.319 6.968C184.911 6.968 183.695 7.26667 182.671 7.864C181.669 8.44 180.89 9.26133 180.335 10.328C179.802 11.3733 179.535 12.6 179.535 14.008V23H178.895V13.24C178.895 11.192 178.383 9.63467 177.359 8.568C176.357 7.50133 174.949 6.968 173.135 6.968C171.727 6.968 170.511 7.26667 169.487 7.864C168.485 8.44 167.706 9.26133 167.151 10.328C166.618 11.3733 166.351 12.6 166.351 14.008V23H165.711V6.456H166.351V11.128L166.287 11.032C166.757 9.60267 167.578 8.472 168.751 7.64C169.925 6.78667 171.375 6.36 173.103 6.36C174.81 6.36 176.218 6.79733 177.327 7.672C178.437 8.52533 179.13 9.80533 179.407 11.512L179.311 11.48C179.717 9.96533 180.517 8.73867 181.711 7.8C182.927 6.84 184.453 6.36 186.287 6.36Z" fill="#FAFAFA"/>
</svg>
